<svg xmlns="http://www.w3.org/2000/svg" width="306" height="30" viewBox="0 0 306 30">
  <path d="M583.72,62 L590.32,43.32 L596.84,62 L601.84,62 L611.88,33.8 L605.96,33.8 L599.28,53.48 L592.68,33.8 L588.32,33.8 L581.48,53.28 L575.04,33.8 L568.72,33.8 L578.72,62 L583.72,62 Z M628.36,62.36 C631.16,62.36 633.593333,61.7666667 635.66,60.58 C637.726667,59.3933333 639.32,57.7133333 640.44,55.54 C641.56,53.3666667 642.12,50.8133333 642.12,47.88 C642.12,44.9466667 641.56,42.3933333 640.44,40.22 C639.32,38.0466667 637.726667,36.3733333 635.66,35.2 C633.593333,34.0266667 631.16,33.44 628.36,33.44 C625.56,33.44 623.126667,34.0266667 621.06,35.2 C618.993333,36.3733333 617.4,38.0466667 616.28,40.22 C615.16,42.3933333 614.6,44.9466667 614.6,47.88 C614.6,50.8133333 615.16,53.3666667 616.28,55.54 C617.4,57.7133333 618.993333,59.3933333 621.06,60.58 C623.126667,61.7666667 625.56,62.36 628.36,62.36 Z M628.36,57.52 C626.013333,57.52 624.173333,56.6933333 622.84,55.04 C621.506667,53.3866667 620.84,51 620.84,47.88 C620.84,44.76 621.5,42.38 622.82,40.74 C624.14,39.1 625.986667,38.28 628.36,38.28 C630.733333,38.28 632.586667,39.1 633.92,40.74 C635.253333,42.38 635.92,44.76 635.92,47.88 C635.92,51 635.246667,53.3866667 633.9,55.04 C632.553333,56.6933333 630.706667,57.52 628.36,57.52 Z M653.04,62 L653.04,51.04 L656.12,51.04 C656.973333,51.04 657.68,51.1933333 658.24,51.5 C658.8,51.8066667 659.28,52.3066667 659.68,53 L659.68,53 L664.56,62 L671.36,62 L666.8,53.64 C665.786667,51.9066667 664.546667,50.8533333 663.08,50.48 C665.24,50.0266667 666.913333,49.08 668.1,47.64 C669.286667,46.2 669.88,44.4133333 669.88,42.28 C669.88,39.5333333 669.033333,37.4333333 667.34,35.98 C665.646667,34.5266667 663.146667,33.8 659.84,33.8 L659.84,33.8 L646.88,33.8 L646.88,62 L653.04,62 Z M658.92,46.32 L652.96,46.32 L652.96,38.56 L658.92,38.56 C660.706667,38.56 662,38.8666667 662.8,39.48 C663.6,40.0933333 664,41.08 664,42.44 C664,43.7733333 663.6,44.7533333 662.8,45.38 C662,46.0066667 660.706667,46.32 658.92,46.32 L658.92,46.32 Z M693.76,62 L693.76,56.92 L681.16,56.92 L681.16,33.8 L674.92,33.8 L674.92,62 L693.76,62 Z M708.4,62 C711.493333,62 714.146667,61.44 716.36,60.32 C718.573333,59.2 720.26,57.58 721.42,55.46 C722.58,53.34 723.16,50.8133333 723.16,47.88 C723.16,44.9466667 722.573333,42.4266667 721.4,40.32 C720.226667,38.2133333 718.533333,36.6 716.32,35.48 C714.106667,34.36 711.466667,33.8 708.4,33.8 L708.4,33.8 L697.44,33.8 L697.44,62 L708.4,62 Z M707.96,56.96 L703.68,56.96 L703.68,38.84 L707.96,38.84 C713.96,38.84 716.96,41.8533333 716.96,47.88 C716.96,53.9333333 713.96,56.96 707.96,56.96 L707.96,56.96 Z M753.4,62 L766.08,33.8 L759.76,33.8 L750.96,54.24 L742.16,33.8 L735.68,33.8 L748.4,62 L753.4,62 Z M774.48,62 L774.48,33.8 L768.24,33.8 L768.24,62 L774.48,62 Z M789.96,62.36 C793.64,62.36 796.506667,61.5933333 798.56,60.06 C800.613333,58.5266667 801.64,56.4266667 801.64,53.76 C801.64,51.5466667 800.846667,49.8133333 799.26,48.56 C797.673333,47.3066667 795.066667,46.28 791.44,45.48 C789.893333,45.1333333 788.7,44.8 787.86,44.48 C787.02,44.16 786.42,43.7933333 786.06,43.38 C785.7,42.9666667 785.52,42.44 785.52,41.8 C785.52,40.7066667 785.986667,39.8466667 786.92,39.22 C787.853333,38.5933333 789.133333,38.28 790.76,38.28 C793.613333,38.28 796.333333,39.2266667 798.92,41.12 L798.92,41.12 L800.92,36.68 C799.826667,35.6933333 798.353333,34.9066667 796.5,34.32 C794.646667,33.7333333 792.72,33.44 790.72,33.44 C788.48,33.44 786.506667,33.82 784.8,34.58 C783.093333,35.34 781.766667,36.3866667 780.82,37.72 C779.873333,39.0533333 779.4,40.5733333 779.4,42.28 C779.4,43.8266667 779.74,45.1266667 780.42,46.18 C781.1,47.2333333 782.18,48.12 783.66,48.84 C785.14,49.56 787.12,50.1733333 789.6,50.68 C791.813333,51.16 793.353333,51.6533333 794.22,52.16 C795.086667,52.6666667 795.52,53.3733333 795.52,54.28 C795.52,55.2933333 795.046667,56.0866667 794.1,56.66 C793.153333,57.2333333 791.8,57.52 790.04,57.52 C786.653333,57.52 783.6,56.5733333 780.88,54.68 L780.88,54.68 L778.88,59.12 C780.186667,60.1333333 781.826667,60.9266667 783.8,61.5 C785.773333,62.0733333 787.826667,62.36 789.96,62.36 Z M812.36,62 L812.36,33.8 L806.12,33.8 L806.12,62 L812.36,62 Z M830.92,62.36 C833.72,62.36 836.153333,61.7666667 838.22,60.58 C840.286667,59.3933333 841.88,57.7133333 843,55.54 C844.12,53.3666667 844.68,50.8133333 844.68,47.88 C844.68,44.9466667 844.12,42.3933333 843,40.22 C841.88,38.0466667 840.286667,36.3733333 838.22,35.2 C836.153333,34.0266667 833.72,33.44 830.92,33.44 C828.12,33.44 825.686667,34.0266667 823.62,35.2 C821.553333,36.3733333 819.96,38.0466667 818.84,40.22 C817.72,42.3933333 817.16,44.9466667 817.16,47.88 C817.16,50.8133333 817.72,53.3666667 818.84,55.54 C819.96,57.7133333 821.553333,59.3933333 823.62,60.58 C825.686667,61.7666667 828.12,62.36 830.92,62.36 Z M830.92,57.52 C828.573333,57.52 826.733333,56.6933333 825.4,55.04 C824.066667,53.3866667 823.4,51 823.4,47.88 C823.4,44.76 824.06,42.38 825.38,40.74 C826.7,39.1 828.546667,38.28 830.92,38.28 C833.293333,38.28 835.146667,39.1 836.48,40.74 C837.813333,42.38 838.48,44.76 838.48,47.88 C838.48,51 837.806667,53.3866667 836.46,55.04 C835.113333,56.6933333 833.266667,57.52 830.92,57.52 Z M855.24,62 L855.24,44.04 L869.28,62 L873.92,62 L873.92,33.8 L868.08,33.8 L868.08,51.68 L854.04,33.8 L849.44,33.8 L849.44,62 L855.24,62 Z" transform="translate(-568 -33)"/>
</svg>
